<svg xmlns="http://www.w3.org/2000/svg" viewBox="0 0 800 124.75"><path fill="gold" d="M46.333 124.66c-.82-.264-3.006-1.295-4.696-2.216-3.128-1.704-5.355-3.13-8.185-5.24-3.13-2.335-7.21-6.144-10.534-9.838-1.62-1.8-4.232-5.33-5.992-8.1-1.402-2.206-2.374-3.923-3.35-5.916-1.893-3.86-3.114-6.988-4.228-10.82-.836-2.874-1.685-7.113-1.996-9.963-.172-1.579-.202-2.19-.201-4.135 0-2.405.131-4.086.5-6.395.289-1.812 1.093-4.7 1.801-6.469l.343-.856-.618-.353c-3.77-2.152-6.776-5.088-8.228-8.038-.79-1.603-1.05-2.959-.824-4.275.39-2.268 1.118-3.906 2.528-5.691.552-.697 1.969-2.096 2.773-2.738 2.174-1.732 5.189-3.401 7.872-4.357 2.086-.742 6.164-1.932 7.293-2.127.323-.056.368-.206 1.123-3.739.275-1.288.748-3.567 1.05-5.065s.63-3.027.725-3.397c1.042-4.03 2.792-7.345 5.154-9.766 1.428-1.464 2.778-2.45 4.512-3.295C35.054.946 36.958.411 39.358.128c2.681-.316 7.797.034 10.985.75 1.682.38 4.55 1.303 6.177 1.99 2.002.844 4.28 2.014 5.799 2.978.582.37.828.482 1.054.484.096 0 .881-.177 1.743-.393 1.857-.467 2.25-.528 3.176-.489 1.137.048 3.438.373 4.17.589.887.26 1.958 1.128 2.85 2.306.696.922 1.38 2.518 1.63 3.805.251 1.292.292 1.746.316 3.52.027 2.054-.009 3.159-.385 11.836-.163 3.74-.309 7.181-.325 7.647s-.04.919-.054 1.007c-.023.152-.014.162.19.215 1.337.35 11.321 3.597 12.924 4.204 1.802.682 2.952 1.422 3.562 2.291.889 1.265.456 2.807-1.242 4.425-1.572 1.498-4.452 3.275-7.944 4.902-.765.357-1.007.491-1.002.557.004.047.178.45.388.897.99 2.111 1.622 3.937 2.271 6.562.492 1.986.827 4.873.88 7.573.068 3.454-.32 6.677-1.383 11.508-.658 2.988-1.884 6.846-3.11 9.79-.853 2.05-2.277 5.047-3.09 6.502a89 89 0 0 1-3.128 5.105c-1.445 2.164-3.81 5.28-5.066 6.676-1.663 1.849-4.26 4.47-5.937 5.99-2.813 2.554-4.84 4.134-8.023 6.257-2.49 1.661-6.2 3.697-8.493 4.66-1.18.495-1.454.55-1.959.387zm1.54-5.469a83 83 0 0 0 5.111-2.872c2.859-1.743 7.276-5.223 10.126-7.976.892-.862 2.75-2.867 3.963-4.276 1.662-1.93 3.729-4.7 4.976-6.665a74 74 0 0 0 4.824-8.893c1.391-3.053 2.48-6.304 3.28-9.79 1.03-4.487 1.302-6.683 1.303-10.512 0-2.36-.092-3.659-.376-5.317-.305-1.778-1.127-4.645-1.79-6.238-.386-.929-.93-2.045-.996-2.045-.032 0-.603.19-1.268.423a91 91 0 0 1-6.979 2.167c-3.158.863-4.652 1.19-8.17 1.79-2.828.482-6.299.828-9.292.926-.957.031-2.051.1-4.683.298-2.134.16-3.156.21-5.58.28-2.466.071-7.194.027-8.619-.08-3.422-.258-8.286-.842-11.41-1.37-1.75-.296-4.077-.923-6.575-1.773-.685-.234-1.282-.436-1.327-.451-.096-.032-.23.294-.632 1.526-.571 1.754-1.014 3.503-1.224 4.833-.257 1.63-.327 2.708-.328 5.007 0 3.145.181 5.117.725 7.846.7 3.506 1.327 5.858 2.323 8.694 1.113 3.172 3.004 7.097 5.184 10.76 1.299 2.184 2.032 3.286 3.45 5.182 1.78 2.38 2.76 3.545 5.136 6.103 2.29 2.465 5.182 4.964 8.938 7.722 2.033 1.493 4.6 3.03 7.971 4.778.48.248.881.452.893.453.011 0 .482-.238 1.046-.53zm-1.914-8.77c-2.16-.263-4.166-.867-5.205-1.566-.945-.636-2.212-1.73-2.705-2.336-.647-.795-1.365-1.968-1.453-2.375-.044-.205.046-.54.21-.78.166-.244.571-.48.822-.481.364-.001.564.125 1.455.915.702.623.822.706 1.496 1.03 1.439.691 2.662 1.02 4.544 1.219 1.414.15 3.212.083 4.727-.176a11.75 11.75 0 0 0 4.382-1.693c1.576-1.014 2.017-1.246 2.373-1.246.31 0 .446.057.71.302.402.37.49.91.213 1.316-.43.633-2.198 2.389-3.388 3.364-.968.793-1.438 1.11-2.252 1.517-1.22.61-2.082.845-3.577.97-.593.05-2.01.063-2.351.02zm-8.42-14.867c-1.91-.09-2.703-.197-4.192-.568-1.79-.445-2.876-.829-4.735-1.672-1.34-.608-2.113-1.066-3.278-1.94-2.196-1.648-4.724-4.224-5.952-6.065-.417-.625-1.159-2.078-1.673-3.277-.869-2.026-1.33-3.833-1.545-6.053-.095-.982-.11-3.102-.026-3.79.047-.388.45-2.003.515-2.068.01-.01.897-.045 1.97-.079 4.468-.14 6.94.236 10.335 1.572 2.329.916 4.007 1.835 5.354 2.93 1.043.848 3.227 2.917 4.039 3.826 1.238 1.386 2.273 3.175 3.259 5.63.904 2.254 1.227 3.656 1.44 6.25.076.936.032 3.223-.07 3.672-.206.894-.626 1.336-1.454 1.53-.616.145-2.202.185-3.986.102zm15.022.027c-.722-.128-.936-.217-1.28-.534-.293-.27-.441-.533-.57-1.012-.092-.342-.11-.573-.13-1.729q-.05-2.662.41-4.943c.323-1.606 1.14-3.794 2.14-5.729 1.034-2.003 1.542-2.688 3.227-4.347 2.333-2.298 3.624-3.349 5.157-4.196.764-.423 2.266-1.118 3.215-1.49 3.398-1.327 5.855-1.698 10.308-1.559 1.075.034 1.962.07 1.971.079.066.066.468 1.681.514 2.068.032.263.057 1.038.056 1.723-.007 3.673-.692 6.417-2.485 9.953-.26.514-.627 1.164-.814 1.444-1.602 2.4-5.02 5.64-7.54 7.144-1.282.765-3.903 1.855-5.61 2.332-1.224.343-2.864.589-4.833.725-.787.054-3.535.106-3.737.07zm-.822-20.407c-.536-.199-.811-.762-.678-1.385.156-.728.905-2.06 1.819-3.236 1.275-1.64 2.645-2.965 4.53-4.382.945-.71 1.47-1.031 2.5-1.53 1.658-.803 3.304-1.392 4.857-1.738 1.604-.356 2.678-.492 3.936-.496.96-.004 1.06.02 1.31.317.184.22.25.468.223.845-.056.776-.455 1.094-2.192 1.746-2.676 1.005-4.374 1.827-6.964 3.372-1.957 1.168-3.873 2.59-6.128 4.553-1.727 1.502-2.309 1.908-2.816 1.963a1.1 1.1 0 0 1-.397-.03m-10.561-.053c-.43-.156-1.02-.598-2.318-1.735-2.094-1.834-4.08-3.356-5.649-4.327a67 67 0 0 0-3.319-1.887c-1.113-.58-2.777-1.303-4.26-1.851-1.313-.486-1.87-.82-2.097-1.258-.127-.246-.152-.789-.048-1.06a.99.99 0 0 1 .638-.579c.452-.124 2.385.018 3.8.279 2.052.379 3.83.97 5.828 1.938 1.03.499 1.555.82 2.499 1.53 2.728 2.05 4.79 4.328 5.92 6.542.465.91.553 1.274.417 1.726-.169.564-.841.889-1.411.682zm.078-21.561c12.766-.364 22.15-1.943 27.67-4.657 1.425-.7 2.804-1.674 3.396-2.398l.167-.204-.885-.867c-.964-.944-2-1.83-3.252-2.782l-.804-.611-.371.035c-.206.019-.979.2-1.728.406-3.59.983-7.628 1.9-10.157 2.307-3.888.626-6.32.867-10.155 1.004-2.47.088-4.9-.04-8.195-.433-3.572-.425-6.224-.994-8.268-1.773-.599-.228-.675-.246-.974-.223-.76.059-2.723.877-3.761 1.568-1.249.83-1.978 1.726-2.13 2.615-.233 1.357.971 2.751 3.478 4.03 1.157.59 1.913.877 3.186 1.213 1.799.474 2.45.557 5.056.647 1.22.042 2.62.094 3.114.117 1.321.06 2.634.062 4.614.006z"/><path fill="#58a6ff" d="M129.03 39.856h12.455l14.005 38.638q.443 1.329.775 2.99.443 1.715.72 3.265.332 1.827.609 3.709h.94l-.165-1.218-.388-3.044q-.166-1.882-.387-4.152-.167-2.27-.167-4.373V39.856h8.968V97.98H153.94l-13.728-38.75q-.609-1.604-.996-3.32-.388-1.717-.665-3.211-.332-1.716-.553-3.432h-.941q.221 1.937.443 4.151.166 1.827.332 4.097.166 2.214.166 4.539V97.98h-8.968zm67.368 58.954q-4.318 0-7.971-1.218-3.598-1.273-6.09-3.543-2.49-2.27-3.874-5.48-1.384-3.266-1.384-7.196V70.136q0-3.93 1.384-7.196 1.384-3.211 3.875-5.48t6.089-3.488q3.653-1.218 7.971-1.218 4.373 0 7.971 1.329 3.543 1.218 6.034 3.432 2.546 2.27 3.875 5.535 1.384 3.211 1.384 7.141v8.082h-28.564v2.934q0 4.429 2.436 6.92 2.546 2.546 6.864 2.546 3.321 0 5.59-.996 2.38-1.052 3.322-2.99h9.964q-.72 2.768-2.436 4.983-1.716 2.27-4.207 3.874-2.435 1.55-5.59 2.436-3.045.83-6.643.83zm-9.3-27.29h18.6v-1.328q0-4.429-2.38-6.865-2.436-2.49-6.92-2.49-4.317 0-6.864 2.49-2.435 2.436-2.435 6.81zm40.465 26.46v-9.19h15.942V62.719h-13.894v-9.134h23.637V88.79h12.843v9.19zm13.01-56.408q0-2.325 1.55-3.82 1.605-1.494 4.206-1.494h2.104q2.601 0 4.151 1.494 1.606 1.495 1.606 3.82 0 2.436-1.606 3.875-1.66 1.44-4.207 1.44h-2.048q-2.601 0-4.207-1.44-1.55-1.44-1.55-3.875m34.93-2.491h10.074v32.051h7.141l11.071-17.548h11.348l-13.784 21.644 14.005 22.751H303.79l-11.07-18.212h-7.142v18.212h-10.075zm48.934 58.954v-9.19h15.942V62.774h-13.95v-9.134h23.637v35.206h12.898v9.19zm13.01-56.408q0-2.38 1.55-3.82 1.605-1.55 4.206-1.55h2.104q2.546 0 4.096 1.55 1.605 1.44 1.605 3.82t-1.605 3.875q-1.605 1.44-4.207 1.44h-1.993q-2.601 0-4.207-1.44-1.55-1.495-1.55-3.875m59.12 17.105h-12.899L394.186 33.6h8.857zm44.34 40.133h-3.211q-7.861 0-12.566-3.155-4.595-3.21-5.315-9.023h10.352q.499 2.103 2.491 3.321 2.049 1.107 5.038 1.107h3.21q3.82 0 5.868-1.439 2.104-1.55 2.104-4.096 0-4.484-6.92-5.425l-6.31-.72q-7.584-.996-11.238-4.207t-3.653-9.3q0-6.31 4.373-9.687 4.484-3.377 12.732-3.377h3.321q7.363 0 11.791 3.156 4.54 3.044 5.37 8.635h-10.407q-.387-1.882-2.214-2.934-1.827-1.107-4.54-1.107h-3.32q-7.142 0-7.142 4.982 0 4.318 5.979 5.038l6.587.885q7.916.941 11.735 4.373 3.764 3.266 3.764 9.356 0 6.532-4.594 10.075t-13.285 3.542zm113.87-.775H518.96V39.911h35.815v8.912h-25.685V63.77h22.862v8.857h-22.862v16.551h25.685zm10.85-16.773V70.246q0-4.041 1.051-7.196 1.163-3.21 3.155-5.48 2.049-2.27 4.872-3.488t6.255-1.218q4.816 0 7.971 2.27t3.875 6.255h.83q-.11-1.384-.166-2.768-.166-1.217-.221-2.49V39.134h10.075V98.09h-9.687v-7.75h-.83q-.72 4.04-3.876 6.31t-7.971 2.27q-3.432 0-6.255-1.218t-4.871-3.487q-1.993-2.325-3.156-5.536-1.052-3.321-1.052-7.362zm18.931 8.802q3.986 0 6.31-2.436 2.381-2.436 2.381-6.366v-10.85q0-4.041-2.435-6.421-2.38-2.436-6.256-2.436-4.096 0-6.476 2.436-2.325 2.325-2.325 6.421V81.04q0 4.152 2.325 6.643 2.38 2.435 6.476 2.435zm31 7.97v-9.188h15.941V62.828h-13.894v-9.134h23.637V88.9h12.843v9.19zm13.008-56.407q0-2.38 1.55-3.82 1.606-1.55 4.207-1.55h2.104q2.601 0 4.151 1.55 1.606 1.44 1.606 3.82t-1.606 3.875q-1.66 1.439-4.207 1.439h-2.048q-2.601 0-4.207-1.44-1.55-1.494-1.55-3.874m32.66 21.146v-9.134h12.29V39.966h10.074v13.728h16.94v9.134h-16.94V84.36q0 2.103 1.218 3.432 1.329 1.162 3.598 1.162H699.7v9.134h-12.068q-6.532 0-10.352-3.709-3.764-3.708-3.764-10.019V62.828zm60.116 7.584v10.905q0 4.04 2.436 6.366 2.49 2.324 6.753 2.324 4.318 0 6.754-2.324 2.49-2.325 2.49-6.366V70.412q0-4.041-2.49-6.366-2.436-2.38-6.754-2.38-4.207 0-6.698 2.38-2.49 2.325-2.49 6.366m-10.13 10.905V70.412q0-3.986 1.384-7.197t3.875-5.48q2.602-2.325 6.145-3.543 3.542-1.328 7.915-1.328t7.972 1.328q3.542 1.218 6.033 3.543 2.602 2.27 3.986 5.48t1.384 7.197v10.905q0 3.93-1.384 7.251-1.384 3.21-3.875 5.591-2.546 2.27-6.144 3.543-3.599 1.218-7.972 1.218t-7.915-1.329q-3.543-1.273-6.145-3.543-2.491-2.324-3.875-5.535-1.384-3.266-1.384-7.196zM762.14 98.09V53.695h9.521v7.694h.72q.83-4.04 4.041-6.255 3.266-2.27 8.248-2.27 7.252 0 11.293 4.484 4.041 4.429 4.041 12.234v3.266h-10.628v-2.38q0-4.263-2.325-6.588-2.38-2.435-6.477-2.435-3.874 0-6.144 2.435-2.214 2.38-2.214 6.588V98.09z" class="a"/></svg>